Coordinates
version=1
nRows=10
nColumns=40
inDegrees=yes

Units are S.I. units (second, meters, Newtons, ...)
Angles are in degrees.

endheader
time	pelvis_tilt	pelvis_list	pelvis_rotation	pelvis_tx	pelvis_ty	pelvis_tz	hip_flexion_r	hip_adduction_r	hip_rotation_r	knee_angle_r	knee_angle_r_beta	ankle_angle_r	subtalar_angle_r	mtp_angle_r	hip_flexion_l	hip_adduction_l	hip_rotation_l	knee_angle_l	knee_angle_l_beta	ankle_angle_l	subtalar_angle_l	mtp_angle_l	lumbar_extension	lumbar_bending	lumbar_rotation	arm_flex_r	arm_add_r	arm_rot_r	elbow_flex_r	pro_sup_r	wrist_flex_r	wrist_dev_r	arm_flex_l	arm_add_l	arm_rot_l	elbow_flex_l	pro_sup_l	wrist_flex_l	wrist_dev_l
     48.70750000	     -4.02435832	     -3.94150773	     -1.78460281	      0.80966826	      0.93323852	      0.42663180	     30.48406135	     -3.97646205	     -7.43111083	     51.80543696	     51.80543696	      6.49049637	    -17.16571854	      5.57061618	     14.35907045	     -4.46326916	     -9.42950818	     19.70280124	     19.70280124	     11.28106904	    -11.37910982	     -3.73927193	    -10.76915130	      4.81211977	      1.81377142	     -0.45446230	    -13.90822273	     -2.69109189	     27.76576626	     46.91305323	      0.00000000	      0.00000000	     16.95981712	    -17.78442109	     -4.30699246	     54.91040607	     46.71299361	      0.00000000	      0.00000000
     48.72071429	     -4.03040795	     -3.90095967	     -2.11910804	      0.80951753	      0.93349519	      0.42668873	     30.56146620	     -3.79545682	     -7.58967907	     48.67783819	     48.67783819	      5.67421361	    -16.75115300	      2.97482861	     13.63198848	     -4.42687093	     -9.81661066	     19.28966463	     19.28966463	     11.47678975	    -11.16917449	     -4.19327841	    -10.85014724	      4.81068850	      1.29073801	     -0.55596075	    -13.73927303	     -5.17729591	     23.98486064	     47.23589733	      0.00000000	      0.00000000	     16.49717476	    -18.40392942	     -5.88987992	     58.25443013	     46.89574355	      0.00000000	      0.00000000
     48.73392857	     -4.11183648	     -3.92748711	     -2.42955844	      0.80935601	      0.93365452	      0.42683963	     30.65381746	     -3.52996382	     -7.85640593	     45.47606266	     45.47606266	      5.72554370	    -15.82511253	      3.11090487	     12.98810104	     -4.43645614	    -10.05844822	     18.85715360	     18.85715360	     11.68633874	    -11.12819456	     -4.18151391	    -10.83140295	      4.92100346	      1.37147537	     -2.09706917	    -14.20592714	     -5.45050404	     23.15592667	     47.27761091	      0.00000000	      0.00000000	     17.24196582	    -18.66419859	     -6.26549252	     59.14408588	     46.94605153	      0.00000000	      0.00000000
     48.74714286	     -4.14305267	     -3.87820081	     -2.75337559	      0.80927334	      0.93374617	      0.42714173	     30.58191099	     -3.36212609	     -8.22901970	     42.10861157	     42.10861157	      5.71419192	    -14.60395980	      2.94489370	     12.27141601	     -4.38057167	    -10.40996286	     18.40962113	     18.40962113	     11.92430965	    -10.95415969	     -4.28990422	    -10.89896946	      4.91839741	      1.65618437	     -3.65264121	    -14.57946739	     -5.87781120	     22.33667266	     47.33251716	      0.00000000	      0.00000000	     17.93393306	    -18.86555859	     -6.78930964	     60.61839664	     47.01598888	      0.00000000	      0.00000000
     48.76035714	     -4.26661101	     -3.81948104	     -3.04992872	      0.80922297	      0.93355605	      0.42756715	     30.42328095	     -3.20022808	     -8.77055823	     38.42923930	     38.42923930	      4.99921678	    -13.44896702	      0.93225224	     11.67442231	     -4.34494330	    -10.83767402	     17.99078845	     17.99078845	     12.06902445	    -10.65706288	     -4.84636948	    -10.88972999	      4.86773478	      1.30908984	     -4.81918737	    -14.67092871	     -7.97397417	     21.92429149	     47.50782374	      0.00000000	      0.00000000	     17.56695262	    -19.31172484	     -8.22091768	     63.67905641	     47.17680473	      0.00000000	      0.00000000
     48.77357143	     -4.43597114	     -3.77657346	     -3.31346221	      0.80920383	      0.93334950	      0.42814373	     30.24963266	     -2.96721110	     -9.31580961	     34.76827779	     34.76827779	      4.90516387	    -11.91269359	      1.22003390	     11.10178558	     -4.29467524	    -11.09016321	     17.51959549	     17.51959549	     12.28736095	    -10.53657869	     -4.91659287	    -10.74256135	      4.89924205	      1.35964829	     -6.14978039	    -15.02227877	     -8.22528021	     21.36490618	     47.53942180	      0.00000000	      0.00000000	     18.14387770	    -19.60348881	     -8.54591454	     64.50919865	     47.21973710	      0.00000000	      0.00000000
     48.78678571	     -4.47652300	     -3.62289591	     -3.61050149	      0.80945218	      0.93311003	      0.42886554	     29.82847733	     -2.88462549	    -10.05685663	     31.05395541	     31.05395541	      4.42562948	     -9.90119633	      0.20142496	     10.29417366	     -4.13426138	    -11.54717654	     16.90133948	     16.90133948	     12.34163482	    -10.22448277	     -5.63333633	    -10.79765130	      4.73964616	      1.33211328	     -7.56443455	    -15.11907898	    -10.37261785	     21.65115835	     47.66755221	      0.00000000	      0.00000000	     18.06217093	    -19.81426661	     -9.72931474	     67.15576154	     47.35924076	      0.00000000	      0.00000000
     48.80000000	     -4.62121369	     -3.54389328	     -3.84730654	      0.80976752	      0.93270387	      0.42974589	     29.43497183	     -2.63052207	    -10.68765336	     27.41571353	     27.41571353	      4.18293708	     -8.02588148	      0.77195486	      9.67254864	     -4.05171480	    -11.80551144	     16.42761234	     16.42761234	     12.59505185	    -10.04166510	     -5.78566924	    -10.63357039	      4.70407095	      1.39567584	     -8.78877085	    -15.32807149	    -10.58313241	     21.27881704	     47.68568246	      0.00000000	      0.00000000	     18.58005676	    -20.05787221	     -9.99013096	     68.04515009	     47.39775698	      0.00000000	      0.00000000
     48.81321429	     -4.57564046	     -3.34335298	     -4.09896670	      0.81043980	      0.93235666	      0.43073643	     28.84532741	     -2.60105070	    -11.63506743	     24.11033072	     24.11033072	      4.07303009	     -5.32148798	      1.36134875	      8.71520681	     -3.83148469	    -12.28781561	     15.75378369	     15.75378369	     12.79185940	     -9.55000917	     -6.27844147	    -10.72668336	      4.47442457	      1.59938315	    -10.18834618	    -15.44675919	    -11.14041724	     21.49685733	     47.69714949	      0.00000000	      0.00000000	     18.86199383	    -20.18688292	    -10.50301707	     69.91582272	     47.47056489	      0.00000000	      0.00000000
     48.82642857	     -4.62002491	     -3.16249633	     -4.30775810	      0.81124016	      0.93176532	      0.43187334	     28.34367626	     -2.49902855	    -12.47168517	     21.09779841	     21.09779841	      3.90009960	     -2.90387563	      2.45417170	      7.86820822	     -3.63241174	    -12.68052862	     15.09260790	     15.09260790	     12.88481215	     -9.16939091	     -6.95780196	    -10.66053634	      4.28571957	      1.54467997	    -11.52326674	    -15.51567707	    -11.89318499	     22.19615208	     47.69518365	      0.00000000	      0.00000000	     18.81026832	    -20.39932239	    -11.16138584	     71.87045384	     47.55454250	      0.00000000	      0.00000000
